#!OML:ASF F:\VICON\USERDATA\INSTALL\rory3\rory3.ASF
:FULLY-SPECIFIED
:DEGREES
168
root 0.834112 14.8425 -18.5804 16.0982 3.79498 -1.09014
lowerback 26.4781 0.208996 0.185759
upperback 2.35723 0.662708 2.50763
thorax -12.1704 0.378433 2.50499
lowerneck -28.8667 -5.84972 -8.12659
upperneck -5.292 -5.55151 11.6912
head 3.31717 -1.95573 4.46686
rclavicle -5.96354e-015 9.14409e-015
rhumerus -23.0976 5.71291 -64.5515
rradius 108.814
rwrist -2.64941
rhand -10.2121 24.5483
rfingers 7.12502
rthumb 15.7794 -4.82854
lclavicle -5.96354e-015 9.14409e-015
lhumerus 2.43382 -6.05593 73.7706
lradius 108.875
lwrist 4.07466
lhand -17.9664 13.8159
lfingers 7.12502
lthumb 8.30272 43.6328
rfemur -60.1786 -0.242458 25.0484
rtibia 79.4737
rfoot -24.5387 -14.2457
rtoes -3.99071
lfemur -62.4348 3.11843 -20.2703
ltibia 78.0224
lfoot -27.3541 0.0242283
ltoes -5.55505
169
root 0.830076 15.0573 -18.5121 15.496 3.58069 -1.00489
lowerback 26.1186 0.301022 -0.0179861
upperback 2.19109 0.724159 2.5295
thorax -12.1757 0.419181 2.6247
lowerneck -28.5623 -5.84173 -8.27606
upperneck -4.79364 -5.54979 11.6139
head 3.43511 -1.95891 4.46261
rclavicle -3.97569e-016 -1.59028e-015
rhumerus -24.2609 6.29875 -62.6229
rradius 110.622
rwrist -3.0487
rhand -9.64444 23.9828
rfingers 7.12502
rthumb 16.326 -5.34999
lclavicle -3.97569e-016 -1.59028e-015
lhumerus 2.44422 -5.851 71.8809
lradius 110.198
lwrist 4.83248
lhand -17.7762 13.8509
lfingers 7.12502
lthumb 8.48636 43.6604
rfemur -57.8987 -0.316279 24.7758
rtibia 77.065
rfoot -23.2613 -13.6257
rtoes -5.09366
lfemur -59.9327 3.02144 -20.1779
ltibia 75.5548
lfoot -26.5623 -0.221941
ltoes -5.01265
170
root 0.832525 15.2908 -18.4463 14.738 3.39717 -0.983479
lowerback 25.9334 0.328007 -0.0121439
upperback 2.06561 0.75576 2.49043
thorax -12.2222 0.433136 2.56567
lowerneck -28.1475 -5.82296 -8.23692
upperneck -4.3173 -5.60101 11.5228
head 3.53205 -1.99591 4.41753
rclavicle 4.37326e-015 -1.98785e-015
rhumerus -25.544 7.05643 -60.8804
rradius 112.14
rwrist -3.88741
rhand -9.79682 23.3457
rfingers 7.12502
rthumb 16.1793 -5.9991
lclavicle 4.37326e-015 -1.98785e-015
lhumerus 2.20296 -5.53797 69.8568
lradius 111.365
lwrist 5.01944
lhand -18.295 13.7261
lfingers 7.12502
lthumb 7.98563 43.5552
rfemur -55.3483 -0.505295 24.6102
rtibia 74.2808
rfoot -22.0057 -13.0334
rtoes -7.4001
lfemur -57.2002 2.87484 -20.0501
ltibia 72.652
lfoot -25.3611 -0.369039
ltoes -5.14067
171
root 0.839399 15.5379 -18.3781 13.9819 2.93571 -0.975554
lowerback 25.8259 0.41563 -0.0628669
upperback 1.89217 0.848161 2.42543
thorax -12.369 0.477798 2.48974
lowerneck -27.9286 -5.79592 -8.30429
upperneck -3.59091 -5.61692 11.5164
head 3.73582 -1.99925 4.41999
rclavicle -6.95746e-015 6.36111e-015
rhumerus -26.939 8.114 -59.2323
rradius 113.428
rwrist -4.96953
rhand -10.6759 22.7006
rfingers 7.12502
rthumb 15.3327 -6.71097
lclavicle -6.95746e-015 6.36111e-015
lhumerus 1.55622 -5.12374 67.7953
lradius 112.25
lwrist 5.09207
lhand -18.7236 13.7777
lfingers 7.12502
lthumb 7.57196 43.6221
rfemur -52.6825 -0.559335 24.418
rtibia 71.2031
rfoot -20.5519 -11.9917
rtoes -8.44851
lfemur -54.2998 2.92012 -19.9825
ltibia 69.4338
lfoot -23.9345 -0.271285
ltoes -6.32613
172
root 0.814564 15.8983 -18.2386 10.8233 4.68124 -0.397033
lowerback 27.8833 -0.299741 0.0272059
upperback 2.29656 -0.0176254 2.49479
thorax -12.9598 0.0877523 2.8592
lowerneck -27.6632 -5.79769 -8.53748
upperneck -2.67897 -5.63723 11.5127
head 3.99644 -2.003 4.44911
rclavicle 9.93923e-015 -1.98785e-015
rhumerus -28.2011 9.41317 -57.5916
rradius 114.425
rwrist -6.33545
rhand -11.9598 23.1167
rfingers 7.12502
rthumb 14.0957 -6.38525
lclavicle 9.93923e-015 -1.98785e-015
lhumerus 0.630016 -4.96342 65.8352
lradius 112.771
lwrist 5.26102
lhand -19.9919 14.1063
lfingers 7.12502
lthumb 6.3476 43.9912
rfemur -46.0304 -2.62808 24.0913
rtibia 67.517
rfoot -20.1189 -11.3514
rtoes -7.71886
lfemur -47.6666 1.23504 -19.8319
ltibia 65.3467
lfoot -22.9345 -0.905584
ltoes -6.99715
173
root 0.818267 16.2 -18.1228 9.35879 5.103 -0.0819178
lowerback 28.0558 -0.509263 0.0309225
upperback 2.34813 -0.291458 2.44525
thorax -12.9772 -0.0372767 2.90676
lowerneck -27.0014 -5.76437 -8.71144
upperneck -2.07603 -5.6355 11.481
head 4.10266 -2.01589 4.46529
rclavicle -7.95139e-016 -3.97569e-016
rhumerus -29.5836 10.8346 -56.1742
rradius 115.087
rwrist -6.75767
rhand -13.2337 22.9742
rfingers 7.12502
rthumb 12.8679 -6.60914
lclavicle -7.95139e-016 -3.97569e-016
lhumerus -0.373442 -5.22466 63.9346
lradius 112.774
lwrist 5.494
lhand -21.9739 14.1967
lfingers 7.12502
lthumb 4.43397 44.1303
rfemur -41.8835 -3.71249 23.7028
rtibia 64.0557
rfoot -19.1202 -10.1153
rtoes -6.44307
lfemur -43.4263 0.532936 -19.94
ltibia 61.4616
lfoot -21.1714 -1.23959
ltoes -8.13673
174
root 0.830896 16.4889 -18.0154 8.47358 4.77927 0.212638
lowerback 27.4191 -0.37711 -0.0537241
upperback 2.44159 -0.185992 2.24495
thorax -12.5345 0.00110189 2.66805
lowerneck -26.528 -5.76655 -8.74446
upperneck -1.51005 -5.7082 11.4716
head 4.22597 -2.05863 4.45717
rclavicle -5.96354e-015 7.15625e-015
rhumerus -31.0319 12.0586 -55.107
rradius 115.228
rwrist -5.64452
rhand -14.8876 23.3536
rfingers 7.12502
rthumb 11.2732 -6.32344
lclavicle -5.96354e-015 7.15625e-015
lhumerus -1.06605 -5.87875 62.0467
lradius 112.25
lwrist 5.87496
lhand -24.2421 13.977
lfingers 7.12502
lthumb 2.24359 43.945
rfemur -38.6929 -4.33323 23.2291
rtibia 60.6153
rfoot -17.4888 -8.55563
rtoes -4.84703
lfemur -39.7804 0.364122 -20.198
ltibia 57.4212
lfoot -18.8947 -1.43942
ltoes -8.08976
175
root 0.842458 16.7421 -17.9147 7.8591 4.15109 0.373448
lowerback 26.5421 -0.143109 -0.249358
upperback 2.42202 0.0405293 2.19461
thorax -12.1002 0.107046 2.62394
lowerneck -26.008 -5.74185 -9.10585
upperneck -0.635703 -5.67758 11.5008
head 4.43897 -2.0468 4.52698
rclavicle 5.36719e-015 -2.38542e-015
rhumerus -32.7828 13.5937 -54.2554
rradius 115.07
rwrist -3.30884
rhand -16.9044 24.153
rfingers 7.12502
rthumb 9.32761 -5.62062
lclavicle 5.36719e-015 -2.38542e-015
lhumerus -2.17463 -6.59096 60.505
lradius 111.434
lwrist 6.23878
lhand -26.0641 13.8991
lfingers 7.12502
lthumb 0.483854 43.8783
rfemur -36.082 -4.69407 22.8793
rtibia 57.3747
rfoot -15.42 -6.99287
rtoes -5.0663
lfemur -36.3387 0.463046 -20.3381
ltibia 53.5038
lfoot -16.3996 -1.4656
ltoes -7.55607
176
root 0.848224 17.008 -17.8077 7.26731 3.49367 0.550996
lowerback 25.6913 0.145516 -0.502821
upperback 2.24864 0.331476 2.15754
thorax -11.8597 0.250012 2.61488
lowerneck -24.877 -5.62562 -9.37813
upperneck 0.0807756 -5.57615 11.3038
head 4.49549 -2.03817 4.52044
rclavicle 7.15625e-015 0
rhumerus -35.2188 15.0533 -53.7956
rradius 115.037
rwrist -1.08461
rhand -17.8521 24.8357
rfingers 7.12502
rthumb 8.41309 -4.97672
lclavicle 7.15625e-015 0
lhumerus -3.69579 -7.64019 59.2891
lradius 110.585
lwrist 6.70154
lhand -26.4154 14.1669
lfingers 7.12502
lthumb 0.144517 44.1466
rfemur -33.3418 -4.95979 22.4942
rtibia 53.9404
rfoot -13.1262 -5.50071
rtoes -7.97017
lfemur -32.875 0.604845 -20.4686
ltibia 49.4541
lfoot -13.791 -1.59567
ltoes -8.99702
